<svg width="40" height="40" viewBox="0 0 40 40" fill="none" xmlns="http://www.w3.org/2000/svg">
<circle cx="20" cy="20" r="20" fill="#EE171F"/>
<path d="M17.0588 9.41174C19.0869 9.41174 21.032 10.2174 22.4661 11.6515C23.9002 13.0856 24.7059 15.0307 24.7059 17.0588C24.7059 18.9529 24.0117 20.6941 22.8706 22.0353L23.1882 22.3529H24.1176L30 28.2353L28.2353 30L22.3529 24.1176V23.1882L22.0353 22.8706C20.6941 24.0117 18.9529 24.7059 17.0588 24.7059C15.0307 24.7059 13.0856 23.9002 11.6515 22.4661C10.2174 21.032 9.41174 19.0869 9.41174 17.0588C9.41174 15.0307 10.2174 13.0856 11.6515 11.6515C13.0856 10.2174 15.0307 9.41174 17.0588 9.41174ZM17.0588 11.7647C14.1176 11.7647 11.7647 14.1176 11.7647 17.0588C11.7647 20 14.1176 22.3529 17.0588 22.3529C20 22.3529 22.3529 20 22.3529 17.0588C22.3529 14.1176 20 11.7647 17.0588 11.7647Z" fill="white"/>
</svg>
