<svg width="16" height="16" viewBox="0 0 16 16" fill="none" xmlns="http://www.w3.org/2000/svg">
<path d="M7.48327 13.1427C7.80107 12.9509 8.19895 12.9509 8.51674 13.1427L11.636 15.0254C12.3933 15.4825 13.3276 14.8035 13.1266 13.9421L12.2988 10.3936C12.2145 10.0321 12.3373 9.65369 12.6179 9.41063L15.3787 7.01891C16.0468 6.44014 15.6905 5.34272 14.8099 5.26678L11.1753 4.95337C10.8065 4.92156 10.4854 4.68858 10.3407 4.3478L8.92052 1.00194C8.57569 0.189574 7.42433 0.189575 7.0795 1.00194L5.65928 4.3478C5.51463 4.68858 5.19353 4.92157 4.82469 4.95337L1.18717 5.26704C0.306943 5.34294 -0.0496162 6.43948 0.617627 7.01857L3.37449 9.41123C3.65422 9.654 3.77685 10.0315 3.69319 10.3923L2.8693 13.9457C2.66965 14.8067 3.60343 15.4844 4.36019 15.0277L7.48327 13.1427Z" fill="#FFD705"/>
</svg>
