<svg width="45" height="45" viewBox="0 0 45 45" fill="none" xmlns="http://www.w3.org/2000/svg">
<path d="M22.5 3.82495C12.1875 3.82495 3.75 12.2437 3.75 22.6125C3.75 31.9874 10.6125 39.7687 19.575 41.1749V28.0499H14.8125V22.6125H19.575V18.4687C19.575 13.7625 22.3688 11.175 26.6625 11.175C28.7063 11.175 30.8438 11.5312 30.8438 11.5312V16.1624H28.4812C26.1562 16.1624 25.425 17.6062 25.425 19.0875V22.6125H30.6375L29.7938 28.0499H25.425V41.1749C29.8433 40.4772 33.8666 38.2228 36.7686 34.8188C39.6706 31.4148 41.26 27.0855 41.25 22.6125C41.25 12.2437 32.8125 3.82495 22.5 3.82495Z" fill="#7C7C7C"/>
</svg>
